<svg width="100%" height="100%" xmlns="http://www.w3.org/2000/svg">
  <defs>
    <!-- Deep Violet-to-Magenta Gradient -->
    <linearGradient id="bgGradient" x1="0%" y1="0%" x2="100%" y2="100%">
      <stop offset="0%" stop-color="#2a0a3a" />  <!-- Deep Violet -->
      <stop offset="50%" stop-color="#4a1b4a" />  <!-- Rich Magenta-Violet -->
      <stop offset="100%" stop-color="#6a2a5a" /> <!-- Warm Magenta -->
    </linearGradient>
    
    <!-- Soft Glow Effect -->
    <filter id="softGlow" x="-20%" y="-20%" width="140%" height="140%">
      <feGaussianBlur stdDeviation="15" result="blur" />
      <feComposite in="SourceGraphic" in2="blur" operator="over" />
    </filter>
    
    <!-- Subtle Sparkle Effect -->
    <filter id="sparkle" x="-30%" y="-30%" width="160%" height="160%">
      <feGaussianBlur stdDeviation="1" result="blur" />
      <feSpecularLighting result="spec" lighting-color="#ff80ff" surfaceScale="2" specularConstant="0.8" specularExponent="15">
        <fePointLight x="50" y="50" z="50" />
      </feSpecularLighting>
      <feComposite in="spec" in2="SourceGraphic" operator="in" />
    </filter>
  </defs>
  
  <!-- Main Gradient Background -->
  <rect width="100%" height="100%" fill="url(#bgGradient)" />
  
  <!-- Soft Glowing Orbs -->
  <circle cx="20%" cy="30%" r="100" fill="#8a3a8a" opacity="0.12" filter="url(#softGlow)" />
  <circle cx="80%" cy="60%" r="140" fill="#aa4aaa" opacity="0.1" filter="url(#softGlow)" />
  <circle cx="50%" cy="80%" r="90" fill="#6a2a6a" opacity="0.15" filter="url(#softGlow)" />
  
  <!-- Delicate Sparkles (Subtle) -->
  <g fill="#ffccff" opacity="0.6" filter="url(#sparkle)">
    <circle cx="15%" cy="20%" r="1.2" />
    <circle cx="85%" cy="30%" r="1.5" />
    <circle cx="25%" cy="75%" r="1" />
    <circle cx="65%" cy="15%" r="1.3" />
    <circle cx="50%" cy="50%" r="0.8" />
    <circle cx="90%" cy="85%" r="1.2" />
  </g>
  
  <!-- Optional: Soft Wavy Lines for Depth -->
  <path d="M0,40 Q50,20 100,60 T200,30 T300,70 T400,20 T500,50 T600,10 T700,40 T800,65 L800,100 L0,100 Z" fill="#4a1b4a" opacity="0.08" />
</svg>