<svg xmlns="http://www.w3.org/2000/svg" viewBox="0 0 800 600">
  <defs>
    <linearGradient id="skyGradient" x1="0%" y1="0%" x2="0%" y2="100%">
      <stop offset="0%" style="stop-color:#C6C5D6"/> <!-- Darker muted purple -->
      <stop offset="60%" style="stop-color:#5A3A4B"/> <!-- Very dark purple-pink -->
      <stop offset="100%" style="stop-color:#0A0408"/> <!-- Near-black purple -->
    </linearGradient>
    
    <!-- Cloud pattern -->
    <pattern id="cloudPattern" x="0" y="0" width="200" height="200" patternUnits="userSpaceOnUse">
      <path d="M25,60 a20,20 0 0,1 40,0 a20,20 1 0,1 40,0 a20,20 1 0,1 40,0" 
            fill="#E7E6F7" fill-opacity="0.7"/> <!-- Light clouds -->
    </pattern>
  </defs>
  
  <!-- Background sky -->
  <rect width="800" height="600" fill="url(#skyGradient)"/>

  
  <!-- Clouds -->
  <rect width="800" height="600" fill="url(#cloudPattern)" opacity="0.6"/>
  
  <!-- Additional clouds -->
  <path d="M100,100 a30,30 0 0,1 60,0 a30,30 1 0,1 60,0 a30,30 1 0,1 60,0" 
        fill="#E7E6F7" fill-opacity="0.8"/> <!-- Light clouds -->
  <path d="M500,150 a25,25 0 0,1 50,0 a25,25 1 0,1 50,0 a25,25 1 0,1 50,0" 
        fill="#E7E6F7" fill-opacity="0.7"/> <!-- Light clouds -->
  
  <!-- Distant buildings silhouette -->
  <path d="M0,400 L100,380 L150,420 L200,370 L250,400 L300,350 L350,420 L400,380 
           L450,400 L500,360 L550,410 L600,370 L650,400 L700,380 L800,400 L800,600 L0,600 Z" 
        fill="#1A0814" opacity="0.9"/> <!-- Very dark purple buildings -->
</svg>